<svg width="100" height="100" viewBox="0 0 100 100" fill="none" xmlns="http://www.w3.org/2000/svg">
<g clip-path="url(#clip0_255_672)">
<path d="M48.3437 72.75C48.4491 72.8544 48.5642 72.9486 48.6874 73.0312L48.8749 73.1328C49.0157 73.2231 49.172 73.2867 49.3358 73.3203L49.5312 73.375C49.8304 73.434 50.1382 73.434 50.4374 73.375L50.6405 73.3125L50.8749 73.2422C50.9553 73.205 51.0336 73.1632 51.1093 73.1172L51.2733 73.0234C51.4027 72.9367 51.5231 72.8372 51.6327 72.7266L72.6562 51.7266C72.9184 51.5225 73.1342 51.265 73.2894 50.9712C73.4445 50.6773 73.5354 50.3539 73.556 50.0222C73.5766 49.6906 73.5265 49.3583 73.4089 49.0476C73.2914 48.7368 73.109 48.4545 72.8741 48.2196C72.6391 47.9846 72.3569 47.8023 72.0461 47.6847C71.7353 47.5672 71.4031 47.517 71.0714 47.5376C70.7398 47.5582 70.4163 47.6491 70.1225 47.8043C69.8286 47.9594 69.5712 48.1753 69.3671 48.4375L52.3437 65.4375V2.34375C52.3437 1.72215 52.0967 1.12601 51.6572 0.686468C51.2176 0.24693 50.6215 0 49.9999 0C49.3783 0 48.7822 0.24693 48.3426 0.686468C47.9031 1.12601 47.6562 1.72215 47.6562 2.34375V65.4375L30.6327 48.4375C30.1818 48.0866 29.6182 47.9125 29.048 47.948C28.4778 47.9834 27.9401 48.2259 27.5361 48.6299C27.1321 49.0339 26.8896 49.5716 26.8541 50.1418C26.8187 50.7121 26.9928 51.2757 27.3437 51.7266L48.3437 72.75Z" fill="black"/>
<path d="M97.6562 68.75C97.0346 68.75 96.4385 68.9969 95.999 69.4365C95.5594 69.876 95.3125 70.4721 95.3125 71.0938V88.2812C95.3125 90.1461 94.5717 91.9345 93.2531 93.2531C91.9345 94.5717 90.1461 95.3125 88.2812 95.3125H11.7188C9.85395 95.3125 8.06552 94.5717 6.74691 93.2531C5.42829 91.9345 4.6875 90.1461 4.6875 88.2812V71.0938C4.6875 70.4721 4.44057 69.876 4.00103 69.4365C3.56149 68.9969 2.96535 68.75 2.34375 68.75C1.72215 68.75 1.12601 68.9969 0.686468 69.4365C0.24693 69.876 0 70.4721 0 71.0938L0 88.2812C0 91.3893 1.23465 94.37 3.43234 96.5677C5.63003 98.7654 8.61074 100 11.7188 100H88.2812C91.3893 100 94.37 98.7654 96.5677 96.5677C98.7654 94.37 100 91.3893 100 88.2812V71.0938C100 70.4721 99.7531 69.876 99.3135 69.4365C98.874 68.9969 98.2779 68.75 97.6562 68.75Z" fill="black"/>
</g>
<defs>
<clipPath id="clip0_255_672">
<rect width="100" height="100" fill="white"/>
</clipPath>
</defs>
</svg>
